<?xml version="1.0" standalone="no"?><!DOCTYPE svg PUBLIC "-//W3C//DTD SVG 1.1//EN" "http://www.w3.org/Graphics/SVG/1.1/DTD/svg11.dtd"><svg t="1598671341851" class="icon" viewBox="0 0 1024 1024" version="1.1" xmlns="http://www.w3.org/2000/svg" p-id="9727" xmlns:xlink="http://www.w3.org/1999/xlink" width="128" height="128"><defs><style type="text/css"></style></defs><path d="M824.889 383.147L703.43 332.8a28.444 28.444 0 1 0-20.764 53.57l60.112 24.368-60.112 27.59a28.444 28.444 0 0 0-14.602 37.358 28.919 28.919 0 0 0 25.98 16.213 15.455 15.455 0 0 0 11.377-3.223l119.467-55.277a28.919 28.919 0 0 0 16.592-25.695 25.695 25.695 0 0 0-16.592-24.557zM549.262 269.464a28.444 28.444 0 0 0-35.745 17.825l-61.724 188.397a28.444 28.444 0 0 0 17.825 35.745 17.54 17.54 0 0 0 8.154 1.612 31.668 31.668 0 0 0 27.591-20.006l61.724-188.302a28.444 28.444 0 0 0-17.825-35.271z m-190.009 79.55A30.151 30.151 0 0 0 322.37 332.8l-122.216 50.347a30.436 30.436 0 0 0-17.825 25.979 28.444 28.444 0 0 0 16.213 25.98l120.13 55.181a30.056 30.056 0 0 0 11.378 3.224 28.919 28.919 0 0 0 25.98-16.213 28.444 28.444 0 0 0-14.697-37.357l-60.112-27.591 60.112-24.368c16.308-8.154 24.463-24.367 17.92-38.969z m221.488 468.195H142.222a28.444 28.444 0 0 0 0 56.889h438.519a28.444 28.444 0 1 0 0-56.89z" fill="#13227a" p-id="9728"></path><path d="M910.222 134.542v512H113.778v-512h796.444m0-56.889H113.778a56.889 56.889 0 0 0-56.89 56.89v512a56.889 56.889 0 0 0 56.89 56.888h796.444a56.889 56.889 0 0 0 56.89-56.889v-512a56.889 56.889 0 0 0-56.89-56.889zM881.778 817.21h-133.31a28.444 28.444 0 0 0 0 56.889h133.31a28.444 28.444 0 0 0 0-56.89z" fill="#13227a" p-id="9729"></path><path d="M666.643 946.347a100.693 100.693 0 1 1 100.693-100.694 100.883 100.883 0 0 1-100.693 100.694z m0-144.593a43.804 43.804 0 1 0 43.9 43.9 43.9 43.9 0 0 0-43.9-43.9z" fill="#13227a" p-id="9730"></path></svg>