<?xml version="1.0" standalone="no"?><!DOCTYPE svg PUBLIC "-//W3C//DTD SVG 1.1//EN" "http://www.w3.org/Graphics/SVG/1.1/DTD/svg11.dtd"><svg t="1598709538775" class="icon" viewBox="0 0 1024 1024" version="1.1" xmlns="http://www.w3.org/2000/svg" p-id="9965" xmlns:xlink="http://www.w3.org/1999/xlink" width="128" height="128"><defs><style type="text/css"></style></defs><path d="M360.48 424a8 8 0 0 1-8-8v-128c0-74.992 61.008-136 136-136s136 61.008 136 136v72h48V288c0-101.456-82.544-184-184-184s-184 82.544-184 184v128a8 8 0 0 1-16 0v-128c0-110.288 89.712-200 200-200s200 89.712 200 200v80a8 8 0 0 1-8 8h-64a8 8 0 0 1-8-8v-80c0-66.176-53.824-120-120-120s-120 53.824-120 120v128a8 8 0 0 1-8 8z" fill="#263238" p-id="9966"></path><path d="M848.96 448h-128l47.024 47.024-239.008 239.04-192-192L128 751.04l33.936 33.936 175.04-175.04 192 192 272.96-272.976L848.96 576z" fill="#40C4FF" p-id="9967"></path><path d="M528.976 809.936a8.064 8.064 0 0 1-5.664-2.336L336.976 621.248 167.6 790.624a8 8 0 0 1-11.312 0l-33.936-33.936a8 8 0 0 1 0-11.312l208.976-208.976a8 8 0 0 1 11.312 0l186.336 186.336 227.696-227.712-41.36-41.376a7.984 7.984 0 0 1 5.664-13.664h128a8 8 0 0 1 8 8v128a8 8 0 0 1-13.664 5.664l-41.392-41.376-267.296 267.328a8.048 8.048 0 0 1-5.648 2.336z m-192-208c2.048 0 4.096 0.784 5.664 2.336l186.336 186.336 267.296-267.312a8 8 0 0 1 11.312 0l33.392 33.376V456h-100.688l33.36 33.376a8 8 0 0 1 0 11.312L534.624 739.712a8.224 8.224 0 0 1-11.312 0L336.976 553.376 139.312 751.024l22.624 22.624 169.376-169.376a8.032 8.032 0 0 1 5.664-2.336z" fill="#263238" p-id="9968"></path><path d="M216.48 625.296a8 8 0 0 1-8-8V488c0-26.464 21.536-48 48-48h432.832a8 8 0 0 1 0 16H256.48c-17.648 0-32 14.352-32 32v129.296a8 8 0 0 1-8 8zM760.48 712a8 8 0 0 1-8-8v-88.336a8 8 0 0 1 16 0V704a8 8 0 0 1-8 8zM720.48 936h-464c-26.464 0-48-21.536-48-48v-112.336a8 8 0 0 1 16 0V888c0 17.648 14.352 32 32 32h464c17.648 0 32-14.352 32-32V832a8 8 0 0 1 16 0v56c0 26.464-21.52 48-48 48zM880.976 336h-64a8 8 0 0 1 0-16h64a8 8 0 0 1 0 16z" fill="#263238" p-id="9969"></path><path d="M848.976 368a8 8 0 0 1-8-8v-64a8 8 0 0 1 16 0v64a8 8 0 0 1-8 8zM968.976 424h-64a8 8 0 0 1 0-16h64a8 8 0 0 1 0 16z" fill="#263238" p-id="9970"></path><path d="M936.976 456a8 8 0 0 1-8-8v-64a8 8 0 0 1 16 0v64a8 8 0 0 1-8 8z" fill="#263238" p-id="9971"></path><path d="M952 728c-5.84 0-11.36 1.328-16.352 3.568 0.112-1.2 0.352-2.352 0.352-3.568a40 40 0 1 0-79.2 8H632v112h80v-48h144.8A40.016 40.016 0 0 0 896 848a40 40 0 0 0 40-40c0-1.216-0.256-2.368-0.352-3.568 4.992 2.24 10.512 3.568 16.352 3.568a40 40 0 1 0 0-80z" fill="#FFD740" p-id="9972"></path><path d="M896 856c-26.464 0-48-21.536-48-48h-128V848a8 8 0 0 1-8 8h-80a8 8 0 0 1-8-8v-112a8 8 0 0 1 8-8H848c0-26.464 21.536-48 48-48a48.064 48.064 0 0 1 47.456 40.784A48.064 48.064 0 0 1 1000 768a48.064 48.064 0 0 1-56.544 47.216A48.064 48.064 0 0 1 896 856z m-184-64h144.816a8.016 8.016 0 0 1 7.856 9.616A32.032 32.032 0 0 0 896 840c17.648 0 32-14.352 32-32l-0.336-2.832a8 8 0 0 1 11.248-8.032c4.224 1.888 8.624 2.864 13.088 2.864 17.648 0 32-14.352 32-32s-14.352-32-32-32c-4.464 0-8.864 0.976-13.056 2.864a7.984 7.984 0 0 1-11.264-8l0.208-1.648C928 710.352 913.648 696 896 696a32.032 32.032 0 0 0-31.344 38.384 8.048 8.048 0 0 1-7.856 9.616H640v96h64V800a8 8 0 0 1 8-8z" fill="#263238" p-id="9973"></path><path d="M712 808h-80a8 8 0 0 1 0-16h80a8 8 0 0 1 0 16zM896 800a8 8 0 0 1-8-8v-48a8 8 0 0 1 16 0v48a8 8 0 0 1-8 8z" fill="#263238" p-id="9974"></path><path d="M243.072 392h-160a8 8 0 0 1 0-16h160a8 8 0 0 1 0 16z" fill="#263238" p-id="9975"></path><path d="M48 392H32a8 8 0 0 1 0-16h16a8 8 0 0 1 0 16z" fill="#263238" p-id="9976"></path></svg>